#!OML:ASF F:\VICON\USERDATA\INSTALL\rory3\rory3.ASF
:FULLY-SPECIFIED
:DEGREES
322
root -1.28401 18.3372 -0.885465 -164.755 7.28989 -171.559
lowerback -8.2879 3.89082 6.62058
upperback -10.7618 6.84911 2.42141
thorax -6.3866 3.79569 -1.00899
lowerneck -7.71643 1.62367 -1.92398
upperneck 32.9273 -1.4052 2.29287
head 12.1 -1.89543 0.752156
rclavicle -1.81391e-014 -3.39922e-014
rhumerus -385.249 47.8405 345.203
rradius 54.92
rwrist 16.3172
rhand -31.8178 414.293
rfingers 7.12502
rthumb -5.07281 24.3741
lclavicle -1.81391e-014 -3.39922e-014
lhumerus -8.48587 -49.4571 5.75643
lradius 56.9296
lwrist -40.3139
lhand -37.2838 -1.15366
lfingers 7.12502
lthumb -10.3485 28.5717
rfemur -54.073 -74.3932 14.0644
rtibia 116.979
rfoot 12.8684 -55.6977
rtoes 61.0586
lfemur -37.5415 -3.30121 -16.1789
ltibia 38.9003
lfoot -31.1729 19.9856
ltoes 52.1875
323
root -1.30587 18.3675 -1.03712 -164.461 6.91076 -171.209
lowerback -8.75923 3.91671 7.17931
upperback -10.8437 6.88944 2.47601
thorax -6.17924 3.8141 -1.21269
lowerneck -7.7012 1.62109 -1.92104
upperneck 32.9698 -1.45417 2.41133
head 12.1166 -1.9049 0.790075
rclavicle -7.41715e-014 -5.45664e-014
rhumerus -386.323 45.5194 345.699
rradius 52.5139
rwrist 16.2916
rhand -30.9642 414.352
rfingers 7.12502
rthumb -4.24859 24.4151
lclavicle -7.41715e-014 -5.45664e-014
lhumerus -9.93756 -48.729 6.53552
lradius 54.4945
lwrist -40.6097
lhand -36.6987 0.854827
lfingers 7.12502
lthumb -9.78393 30.6075
rfemur -54.7023 -77.1099 13.4762
rtibia 119.218
rfoot 12.7082 -56.4375
rtoes 61.4455
lfemur -37.3226 -3.17627 -16.0907
ltibia 38.7043
lfoot -30.0517 21.7477
ltoes 51.3751
324
root -1.32093 18.3993 -1.17158 -164.189 6.63798 -170.906
lowerback -8.8995 3.88657 7.5973
upperback -11.044 6.91269 2.53374
thorax -6.30273 3.82383 -1.37939
lowerneck -7.75979 1.74522 -1.99102
upperneck 33.2859 -1.38542 2.5916
head 12.2583 -1.8857 0.873941
rclavicle 6.5102e-015 2.11706e-014
rhumerus -387.154 43.489 346.352
rradius 50.0145
rwrist 16.558
rhand -30.4998 414.571
rfingers 7.12502
rthumb -3.80012 24.625
lclavicle 6.5102e-015 2.11706e-014
lhumerus -11.4298 -47.9473 7.23009
lradius 51.9695
lwrist -40.7637
lhand -35.9904 0.433055
lfingers 7.12502
lthumb -9.10058 30.2167
rfemur -56.6881 -79.6889 14.187
rtibia 121.471
rfoot 14.2758 -56.877
rtoes 61.5116
lfemur -37.1142 -3.06697 -15.981
ltibia 38.4961
lfoot -29.271 22.9111
ltoes 50.7
325
root -1.33051 18.431 -1.29087 -163.849 6.2844 -170.549
lowerback -8.81201 3.77854 7.92958
upperback -11.3399 6.90129 2.69593
thorax -6.68701 3.82493 -1.42374
lowerneck -7.35328 1.71673 -1.73504
upperneck 33.2049 -1.46235 2.40483
head 12.1411 -1.92869 0.747482
rclavicle -1.05853e-014 9.74045e-015
rhumerus -387.61 41.6984 347.305
rradius 47.4386
rwrist 16.912
rhand -29.7325 414.31
rfingers 7.12502
rthumb -3.05917 24.3522
lclavicle -1.05853e-014 9.74045e-015
lhumerus -12.9215 -46.803 7.99898
lradius 49.5195
lwrist -41.4404
lhand -35.7637 -0.608392
lfingers 7.12502
lthumb -8.88175 29.1847
rfemur -60.6203 -82.1184 17.0935
rtibia 123.604
rfoot 19.1397 -56.5322
rtoes 60.9477
lfemur -36.9972 -2.96058 -15.7483
ltibia 38.2547
lfoot -29.7889 22.721
ltoes 51.0738
326
root -1.34251 18.4586 -1.42121 -163.548 5.93551 -170.206
lowerback -8.97231 3.63655 8.28662
upperback -11.4178 6.75582 2.89581
thorax -6.70112 3.75946 -1.40731
lowerneck -7.71577 1.76754 -1.61359
upperneck 33.3968 -1.3718 2.29132
head 12.2931 -1.8833 0.691879
rclavicle -2.84759e-014 -2.46493e-014
rhumerus -387.438 39.9679 348.441
rradius 44.6497
rwrist 17.1457
rhand -30.1762 413.928
rfingers 7.12502
rthumb -3.48762 23.9768
lclavicle -2.84759e-014 -2.46493e-014
lhumerus -14.5012 -45.0613 8.71868
lradius 47.1033
lwrist -42.6848
lhand -35.6811 -1.00824
lfingers 7.12502
lthumb -8.80203 28.7882
rfemur -63.1035 -84.8427 18.5657
rtibia 125.666
rfoot 24.9939 -55.4957
rtoes 60.283
lfemur -36.8158 -2.95025 -15.5319
ltibia 38.063
lfoot -29.3826 23.4952
ltoes 50.6187
